<svg width="170" height="50" viewBox="0 0 170 50" fill="none" xmlns="http://www.w3.org/2000/svg">
<g clip-path="url(#clip0_1029_352)">
<path d="M26.4975 30.8327C26.4975 30.8327 28.8708 33.5658 31.9031 30.8327C34.8441 28.2604 36.9836 30.8327 36.9836 30.8327L44.068 43.4242C44.2734 44.1097 43.8212 44.8145 43.061 44.9984H19.5314C18.7712 44.8145 18.3191 44.111 18.523 43.4242L26.4975 30.8327ZM15.6476 42.7798L27.028 25.5093V25.4772L27.048 15.3564H26.2621C25.084 15.3564 24.1255 14.4934 24.1255 13.4285C24.1255 12.3648 25.084 11.5018 26.2621 11.5018H37.6653C38.8449 11.5018 39.8019 12.3648 39.8019 13.4285C39.8019 14.4934 38.8449 15.3564 37.6653 15.3564H36.9779L37.0007 25.4797L46.8535 42.7798C47.464 44.8364 46.1104 46.9495 43.8312 47.5H18.6699C16.3879 46.9495 15.0343 44.8364 15.6476 42.7798ZM19.0508 46.2113L43.4518 46.1868C44.9708 45.819 45.8722 44.4094 45.4657 43.0409L35.5573 25.5286L35.5273 14.0715H37.6639C38.0561 14.0715 38.3756 13.7834 38.3756 13.4285C38.3756 13.0735 38.0561 12.7867 37.6639 12.7867H26.2607C25.8685 12.7867 25.5504 13.0748 25.5504 13.4285C25.5504 13.7834 25.8685 14.0715 26.2607 14.0715H28.3973L28.3616 25.4862L17.0383 43.0628C16.6303 44.4351 17.5332 45.8447 19.0508 46.2113ZM30.5652 9.57385C30.5652 10.2838 29.9263 10.86 29.139 10.86C28.3516 10.86 27.7127 10.2838 27.7127 9.57385C27.7127 8.8639 28.3502 8.2877 29.139 8.2877C29.9277 8.2877 30.5652 8.86261 30.5652 9.57385ZM29.139 6.35847C27.958 6.35847 26.9995 5.49546 26.9995 4.42923C26.9995 3.36301 27.958 2.5 29.139 2.5C30.3199 2.5 31.2784 3.36301 31.2784 4.42923C31.2784 5.49546 30.3199 6.35847 29.139 6.35847ZM34.8441 9.57385C34.0554 9.57385 33.4178 8.99766 33.4178 8.2877C33.4178 7.57774 34.0554 7.00154 34.8441 7.00154C35.6329 7.00154 36.2704 7.57774 36.2704 8.2877C36.2704 8.99766 35.6329 9.57385 34.8441 9.57385Z" fill="url(#paint0_linear_1029_352)"/>
</g>
<path d="M66.3494 40.84C65.9494 40.76 65.5094 40.6 65.0294 40.36C64.5494 40.12 64.1094 39.8133 63.7094 39.44C63.3094 39.0933 63.016 38.7333 62.8294 38.36C62.1627 37 61.7894 35.56 61.7094 34.04C61.656 32.4933 61.856 30.6267 62.3094 28.44C62.4427 27.9867 62.616 27.3733 62.8294 26.6C63.0694 25.8267 63.3227 25.0533 63.5894 24.28C63.856 23.5067 64.096 22.8533 64.3094 22.32C64.5227 21.7867 64.656 21.52 64.7094 21.52C64.7894 21.44 64.8294 21.2133 64.8294 20.84C64.8294 20.7067 64.936 20.4267 65.1494 20C65.3894 19.5467 65.6827 19.04 66.0294 18.48C66.4027 17.92 66.776 17.3867 67.1494 16.88C67.5494 16.3467 67.9227 15.9333 68.2694 15.64C68.8027 14.9467 69.4027 14.36 70.0694 13.88C70.7627 13.3733 71.4427 12.9467 72.1094 12.6C72.2694 12.4933 72.496 12.3733 72.7894 12.24C73.1094 12.1067 73.456 11.9867 73.8294 11.88C74.2027 11.7733 74.536 11.7067 74.8294 11.68C76.1627 11.6 77.1627 11.76 77.8294 12.16C78.496 12.56 79.0827 13.28 79.5894 14.32C80.1227 14.9067 80.416 15.4667 80.4694 16C80.5227 16.5333 80.6027 17.1867 80.7094 17.96C80.7094 18.68 80.6294 19.5333 80.4694 20.52C80.336 21.48 80.1494 22.44 79.9094 23.4C79.6694 24.3333 79.4027 25.12 79.1094 25.76C78.816 26.3733 78.536 26.68 78.2694 26.68C78.2694 26.68 78.2294 26.6933 78.1494 26.72C78.0694 26.72 78.0294 26.7867 78.0294 26.92C78.0827 27.1067 78.0294 27.5333 77.8694 28.2C77.7094 28.84 77.4294 29.5467 77.0294 30.32C76.176 32.72 75.1627 34.7333 73.9894 36.36C72.8427 37.96 71.616 39.1467 70.3094 39.92C69.0027 40.6933 67.6827 41 66.3494 40.84ZM74.5894 43.04C74.1627 43.0667 73.736 42.9067 73.3094 42.56C72.8827 42.24 72.616 41.9067 72.5094 41.56C72.3227 41.4 72.2294 41.24 72.2294 41.08C72.2294 40.9467 72.2027 40.8533 72.1494 40.8C72.0427 40.7467 71.896 40.6 71.7094 40.36C71.5227 40.1467 71.3894 39.8933 71.3094 39.6C71.1227 39.2267 70.8427 38.6933 70.4694 38C70.1227 37.28 69.7494 36.5467 69.3494 35.8C68.9494 35.0267 68.5894 34.36 68.2694 33.8C67.976 33.2133 67.8027 32.88 67.7494 32.8C67.536 32.5867 67.5627 32.32 67.8294 32C67.9627 31.68 68.1094 31.4933 68.2694 31.44C68.456 31.3867 68.8027 31.4267 69.3094 31.56C69.9227 31.56 70.4827 32.2 70.9894 33.48C71.016 33.6133 71.136 33.9333 71.3494 34.44C71.5627 34.9467 71.8027 35.4533 72.0694 35.96C72.336 36.44 72.5494 36.7467 72.7094 36.88C72.8427 37.1733 72.9894 37.5067 73.1494 37.88C73.3094 38.2533 73.4827 38.56 73.6694 38.8C73.7494 39.0933 73.9227 39.4133 74.1894 39.76C74.456 40.1067 74.6427 40.4667 74.7494 40.84C75.3627 41.8 75.656 42.4133 75.6294 42.68C75.6294 42.9467 75.2827 43.0667 74.5894 43.04ZM66.6694 38.52C67.7894 38.3867 68.896 37.76 69.9894 36.64C71.1094 35.4933 72.1627 34 73.1494 32.16C74.1627 30.2933 75.0694 28.2267 75.8694 25.96C76.1094 25.2933 76.4027 24.56 76.7494 23.76C77.096 22.9333 77.4027 22.0267 77.6694 21.04C77.936 20.0533 78.0694 19.0133 78.0694 17.92C78.2294 16.7467 78.1894 15.88 77.9494 15.32C77.7094 14.76 77.2694 14.3333 76.6294 14.04C75.776 13.72 74.8294 13.7867 73.7894 14.24C72.776 14.6667 71.776 15.4533 70.7894 16.6C69.8027 17.7467 68.9227 19.2533 68.1494 21.12C67.056 23.44 66.1894 25.52 65.5494 27.36C64.9094 29.2 64.496 30.8533 64.3094 32.32C64.1227 33.7867 64.1627 35.12 64.4294 36.32C64.4827 37.1467 64.696 37.76 65.0694 38.16C65.4694 38.5867 66.0027 38.7067 66.6694 38.52ZM90.7475 37.92C90.4808 37.6533 90.2142 37.2933 89.9475 36.84C89.6808 36.36 89.4675 35.8133 89.3075 35.2C89.2542 34.9867 89.2275 34.6933 89.2275 34.32C89.2542 33.9467 89.2542 33.68 89.2275 33.52C89.1475 33.7067 89.0142 33.9067 88.8275 34.12C88.6675 34.3067 88.5075 34.4667 88.3475 34.6C88.2408 34.7067 88.0008 34.92 87.6275 35.24C87.2542 35.5333 86.8808 35.7733 86.5075 35.96C85.6275 36.52 84.8942 36.8267 84.3075 36.88C83.7475 36.9333 83.2142 36.64 82.7075 36C82.2808 35.6533 81.9742 35.2667 81.7875 34.84C81.6275 34.4133 81.6275 33.8267 81.7875 33.08C81.8408 32.1467 81.9742 31.24 82.1875 30.36C82.4008 29.4533 82.8408 28.2533 83.5075 26.76C84.0675 25.6667 84.4942 24.8667 84.7875 24.36C85.0808 23.8267 85.2675 23.5067 85.3475 23.4C85.7475 23.2667 86.0808 23.28 86.3475 23.44C86.6142 23.5733 86.7742 23.8267 86.8275 24.2C86.9875 24.4667 86.9608 24.92 86.7475 25.56C86.5608 26.2 86.2275 26.9867 85.7475 27.92C85.3742 28.8267 85.0275 29.7333 84.7075 30.64C84.4142 31.5467 84.2408 32.32 84.1875 32.96C84.1342 33.6 84.2942 33.9867 84.6675 34.12C84.9075 34.2533 85.3208 34.2133 85.9075 34C86.5208 33.7867 87.2008 33.2533 87.9475 32.4C88.7208 31.5467 89.4675 30.2533 90.1875 28.52C90.4008 27.9867 90.5608 27.52 90.6675 27.12C90.7742 26.6933 90.8408 26.2267 90.8675 25.72C90.8142 25.4 90.8275 25.12 90.9075 24.88C91.0142 24.6133 91.2275 24.3867 91.5475 24.2C91.6542 24.0667 91.8008 23.9467 91.9875 23.84C92.1742 23.7067 92.2942 23.7067 92.3475 23.84L92.9875 23.8C93.0942 23.7733 93.1608 23.84 93.1875 24C93.2408 24.1333 93.3342 24.2533 93.4675 24.36C93.7608 24.6 93.8408 25.12 93.7075 25.92C93.5742 26.72 93.2008 27.84 92.5875 29.28C92.0808 30.3733 91.7342 31.2 91.5475 31.76C91.3875 32.32 91.2942 32.8667 91.2675 33.4C91.2675 33.88 91.3608 34.3333 91.5475 34.76C91.7342 35.1867 92.0275 35.5733 92.4275 35.92C92.7208 36.1067 92.8808 36.32 92.9075 36.56C92.9608 36.8 92.9742 37.08 92.9475 37.4C92.8942 37.64 92.7342 37.84 92.4675 38C92.2275 38.1333 91.9475 38.2 91.6275 38.2C91.3075 38.2 91.0142 38.1067 90.7475 37.92ZM97.9922 36.76C97.5922 36.7067 97.2455 36.4267 96.9522 35.92C96.6855 35.3867 96.5255 34.9067 96.4722 34.48C96.4989 34.2667 96.5255 33.96 96.5522 33.56C96.6055 33.16 96.6589 32.7467 96.7122 32.32C96.8189 31.8133 96.9655 31.2 97.1522 30.48C97.3389 29.7333 97.5255 28.9867 97.7122 28.24C97.9255 27.4933 98.1122 26.8533 98.2722 26.32C98.4322 25.7867 98.5389 25.4667 98.5922 25.36C98.7255 25.1467 98.9389 25.0933 99.2322 25.2C99.5255 25.3067 99.7655 25.4667 99.9522 25.68C100.112 25.8933 100.206 26.1467 100.232 26.44C100.286 26.7333 100.246 27.16 100.112 27.72C100.006 28.28 99.7922 29.1067 99.4722 30.2C99.1789 31.2667 98.9522 32.1333 98.7922 32.8C98.6589 33.44 98.6055 34.12 98.6322 34.84C98.5255 35.7467 98.4455 36.3067 98.3922 36.52C98.3389 36.7067 98.2055 36.7867 97.9922 36.76ZM102.592 20.8C102.486 20.88 102.379 20.92 102.272 20.92C102.192 20.8933 102.046 20.8133 101.832 20.68C101.646 20.6533 101.406 20.5333 101.112 20.32C100.846 20.08 100.606 19.84 100.392 19.6C100.206 19.3333 100.112 19.1733 100.112 19.12C100.086 18.8533 100.099 18.52 100.152 18.12C100.232 17.6933 100.379 17.32 100.592 17C100.806 16.6533 101.112 16.4667 101.512 16.44C101.619 16.44 101.712 16.4533 101.792 16.48C101.872 16.5067 102.112 16.6 102.512 16.76C102.726 17.16 102.939 17.6133 103.152 18.12C103.366 18.6 103.459 19.08 103.432 19.56C103.406 20.0133 103.126 20.4267 102.592 20.8ZM105.053 36.88C104.04 37.0133 103.28 37.1067 102.773 37.16C102.266 37.1867 101.88 37.1467 101.613 37.04C101.373 36.9333 101.106 36.7467 100.813 36.48C100.573 36.2667 100.48 36.0133 100.533 35.72C100.613 35.4267 101.066 34.8533 101.893 34C102.4 33.3867 102.92 32.8133 103.453 32.28C103.986 31.72 104.466 31.2667 104.893 30.92C105.08 30.76 105.293 30.6 105.533 30.44C105.773 30.2533 106.16 29.9733 106.693 29.6C107.226 29.2267 108.013 28.6933 109.053 28C109.56 27.6 109.96 27.2933 110.253 27.08C110.546 26.8667 110.786 26.6933 110.973 26.56C111.186 26.4 111.4 26.24 111.613 26.08C111.426 26.0533 111.013 26.0133 110.373 25.96C109.76 25.9067 109.186 25.9067 108.653 25.96C107.906 25.96 107.426 25.96 107.213 25.96C107 25.9333 106.786 25.8933 106.573 25.84H105.973C105.84 25.84 105.6 25.7867 105.253 25.68C104.906 25.5467 104.586 25.3867 104.293 25.2C104 25.0133 103.84 24.8267 103.813 24.64C103.813 24.64 103.893 24.6 104.053 24.52C104.213 24.4133 104.346 24.3067 104.453 24.2C104.666 24.0667 104.826 23.96 104.933 23.88C105.066 23.8 105.186 23.8133 105.293 23.92C105.293 23.92 105.546 23.92 106.053 23.92C106.56 23.8933 107.133 23.8667 107.773 23.84C109.32 23.8667 110.453 23.92 111.173 24C111.92 24.0533 112.466 24.16 112.813 24.32C113.186 24.48 113.546 24.72 113.893 25.04C114.32 25.4667 114.493 25.88 114.413 26.28C114.333 26.68 114.146 27.04 113.853 27.36C113.746 27.4667 113.64 27.5867 113.533 27.72C113.453 27.8267 113.373 27.88 113.293 27.88C113.293 27.88 113.106 28 112.733 28.24C112.36 28.48 111.906 28.7733 111.373 29.12C110.866 29.4667 110.36 29.7867 109.853 30.08C109.373 30.3733 109.08 30.5867 108.973 30.72C108.786 30.8267 108.56 30.9733 108.293 31.16C108.026 31.32 107.84 31.4533 107.733 31.56C107.653 31.6667 107.466 31.8533 107.173 32.12C106.906 32.3867 106.613 32.6267 106.293 32.84C106.053 33.0533 105.76 33.32 105.413 33.64C105.093 33.96 104.813 34.24 104.573 34.48C104.333 34.72 104.213 34.84 104.213 34.84C104.213 34.84 104.48 34.8133 105.013 34.76C105.546 34.68 106.213 34.6133 107.013 34.56C107.813 34.48 108.6 34.4667 109.373 34.52C110.626 34.4933 111.613 34.4667 112.333 34.44C113.08 34.3867 113.64 34.3733 114.013 34.4C114.413 34.4 114.72 34.4533 114.933 34.56C115.12 34.6133 115.28 34.72 115.413 34.88C115.573 35.04 115.68 35.2133 115.733 35.4C115.813 35.56 115.826 35.68 115.773 35.76C115.666 35.76 115.253 35.8 114.533 35.88C113.813 35.9333 112.986 35.9867 112.053 36.04C110.826 36.1467 109.64 36.28 108.493 36.44C107.346 36.6 106.2 36.7467 105.053 36.88ZM122.31 39.32C121.67 39.4 121.177 39.44 120.83 39.44C120.51 39.44 120.204 39.4 119.91 39.32C119.644 39.24 119.284 39.1333 118.83 39C118.457 38.76 118.137 38.5333 117.87 38.32C117.63 38.1067 117.444 37.9467 117.31 37.84C117.31 37.7067 117.27 37.6 117.19 37.52C117.137 37.44 117.11 37.4 117.11 37.4C117.004 37.4 116.91 37.1733 116.83 36.72C116.777 36.24 116.75 35.68 116.75 35.04C116.777 34.4 116.817 33.8 116.87 33.24C116.95 32.68 117.044 32.3067 117.15 32.12C117.15 31.9867 117.177 31.8267 117.23 31.64C117.31 31.4267 117.35 31.2533 117.35 31.12C117.35 30.6667 117.417 30.44 117.55 30.44C117.55 30.44 117.577 30.44 117.63 30.44C117.71 30.4133 117.75 30.36 117.75 30.28C117.75 30.12 117.804 29.9067 117.91 29.64C118.017 29.3467 118.097 29.08 118.15 28.84C118.284 28.6 118.444 28.1867 118.63 27.6C118.844 27.0133 119.044 26.4667 119.23 25.96C119.364 25.3733 119.55 24.7867 119.79 24.2C120.03 23.6133 120.204 23.1467 120.31 22.8C120.684 22.16 120.87 21.68 120.87 21.36C120.924 21.1733 121.097 20.7733 121.39 20.16C121.71 19.5467 122.07 18.8267 122.47 18C122.897 17.1733 123.324 16.3333 123.75 15.48C124.204 14.6267 124.604 13.88 124.95 13.24C125.324 12.6 125.604 12.16 125.79 11.92C126.217 11.3867 126.537 11.0533 126.75 10.92C126.964 10.7867 127.19 10.72 127.43 10.72C127.564 10.7733 127.724 10.8933 127.91 11.08C128.124 11.2667 128.324 11.4667 128.51 11.68C128.697 11.8933 128.804 12.08 128.83 12.24C128.83 12.2933 128.724 12.4933 128.51 12.84C128.297 13.1867 128.03 13.5733 127.71 14C127.39 14.4267 127.084 14.8 126.79 15.12C126.71 15.2267 126.657 15.32 126.63 15.4C126.63 15.48 126.63 15.52 126.63 15.52C126.63 15.52 126.537 15.68 126.35 16C126.19 16.2933 125.99 16.6667 125.75 17.12C125.51 17.5467 125.297 17.96 125.11 18.36C124.924 18.76 124.817 19.0533 124.79 19.24C124.63 19.4267 124.404 19.8133 124.11 20.4C123.844 20.96 123.577 21.5733 123.31 22.24C123.044 22.88 122.804 23.44 122.59 23.92C122.377 24.4 122.244 24.6667 122.19 24.72C122.19 24.8533 122.177 24.9867 122.15 25.12C122.15 25.2267 122.097 25.3467 121.99 25.48C121.91 25.6667 121.764 26.0933 121.55 26.76C121.364 27.4 121.097 28.0667 120.75 28.76C120.564 29.56 120.337 30.2667 120.07 30.88C119.804 31.4933 119.604 31.8667 119.47 32C119.364 32.2667 119.31 32.4267 119.31 32.48C119.31 32.5067 119.364 32.5067 119.47 32.48C119.604 32.3467 119.67 32.3333 119.67 32.44C119.67 32.52 119.604 32.6667 119.47 32.88C119.364 33.1467 119.27 33.4533 119.19 33.8C119.11 34.1467 119.07 34.5067 119.07 34.88C119.124 35.7867 119.257 36.3867 119.47 36.68C119.684 36.9733 120.124 37.1067 120.79 37.08C121.697 37.0267 122.537 36.9333 123.31 36.8C124.084 36.6667 124.71 36.5467 125.19 36.44C126.07 36.1467 126.83 36.0133 127.47 36.04C128.137 36.04 128.604 36.2133 128.87 36.56C129.03 36.8 129.124 36.9867 129.15 37.12C129.177 37.2533 129.19 37.3867 129.19 37.52C129.11 37.6267 128.79 37.7867 128.23 38C127.697 38.1867 127.057 38.3733 126.31 38.56C125.564 38.7733 124.817 38.9467 124.07 39.08C123.35 39.2133 122.764 39.2933 122.31 39.32ZM135.582 36.68C135.262 36.7333 134.915 36.68 134.542 36.52C134.168 36.36 133.835 36.1333 133.542 35.84C133.275 35.5467 133.102 35.24 133.022 34.92C132.915 34.36 132.982 33.6667 133.222 32.84C133.488 31.9867 133.862 31.0933 134.342 30.16C134.848 29.2 135.408 28.28 136.022 27.4C136.662 26.52 137.315 25.76 137.982 25.12C138.675 24.4533 139.315 24 139.902 23.76C140.195 23.5733 140.422 23.4533 140.582 23.4C140.768 23.32 140.955 23.3067 141.142 23.36C141.355 23.4133 141.662 23.5467 142.062 23.76C142.435 23.8667 142.715 23.9867 142.902 24.12C143.088 24.2533 143.328 24.52 143.622 24.92C143.835 25.32 143.995 25.72 144.102 26.12C144.208 26.52 144.302 26.9733 144.382 27.48C144.595 28.1467 144.675 28.5867 144.622 28.8C144.568 28.9867 144.488 29.1333 144.382 29.24C144.168 29.5067 144.115 29.64 144.222 29.64C144.222 29.64 144.208 29.6933 144.182 29.8C144.182 29.88 144.128 30.0133 144.022 30.2C143.835 30.7867 143.688 31.4 143.582 32.04C143.502 32.6533 143.515 33.16 143.622 33.56C143.835 34.1467 144.222 34.4933 144.782 34.6C145.342 34.7067 145.915 34.4667 146.502 33.88C146.795 33.6667 147.075 33.48 147.342 33.32C147.608 33.1333 147.742 33.1467 147.742 33.36C147.742 33.36 147.782 33.4 147.862 33.48C147.942 33.5333 148.035 33.56 148.142 33.56C148.275 33.56 148.355 33.6133 148.382 33.72C148.435 33.8267 148.435 33.9733 148.382 34.16C148.355 34.32 148.275 34.5067 148.142 34.72C147.742 35.12 147.542 35.3867 147.542 35.52C147.542 35.52 147.488 35.5733 147.382 35.68C147.302 35.76 147.155 35.8933 146.942 36.08C146.462 36.3733 145.848 36.52 145.102 36.52C144.382 36.52 143.822 36.3733 143.422 36.08C143.022 35.7867 142.648 35.3867 142.302 34.88C141.982 34.3733 141.768 33.9333 141.662 33.56L141.462 33.16L140.302 33.92C140.008 34.2133 139.688 34.4933 139.342 34.76C139.022 35.0267 138.808 35.2133 138.702 35.32C138.622 35.4267 138.528 35.52 138.422 35.6C138.342 35.68 138.248 35.72 138.142 35.72C138.035 35.72 137.942 35.72 137.862 35.72C137.782 35.72 137.742 35.72 137.742 35.72C137.742 35.8267 137.608 35.96 137.342 36.12C137.102 36.28 136.808 36.4133 136.462 36.52C136.142 36.6267 135.848 36.68 135.582 36.68ZM135.182 34.52C135.342 34.52 135.622 34.4 136.022 34.16C136.448 33.8933 136.915 33.5867 137.422 33.24C137.955 32.8933 138.422 32.5467 138.822 32.2C139.248 31.8533 139.542 31.5867 139.702 31.4C139.808 31.2933 139.982 31.12 140.222 30.88C140.462 30.6133 140.675 30.3867 140.862 30.2C141.475 29.5067 141.902 28.7467 142.142 27.92C142.382 27.0667 142.355 26.4 142.062 25.92C141.955 25.6267 141.822 25.4667 141.662 25.44C141.502 25.4133 141.168 25.5067 140.662 25.72C140.342 25.9067 139.942 26.2667 139.462 26.8C139.008 27.3067 138.515 27.9067 137.982 28.6C137.475 29.2667 136.995 29.96 136.542 30.68C136.088 31.4 135.715 32.0667 135.422 32.68C135.128 33.2933 134.982 33.7733 134.982 34.12C134.982 34.2267 135.008 34.32 135.062 34.4C135.142 34.48 135.182 34.52 135.182 34.52ZM152.628 36.8C152.281 36.88 151.961 36.88 151.668 36.8C151.374 36.72 151.108 36.5867 150.868 36.4C150.628 36.2133 150.414 36.0267 150.228 35.84C150.041 35.6267 149.988 35.44 150.068 35.28C150.148 35.0933 150.281 35 150.468 35C150.574 35 150.641 34.8933 150.668 34.68C150.721 34.44 150.774 34.0133 150.828 33.4C150.881 33.0267 150.948 32.7067 151.028 32.44C151.134 32.1467 151.188 31.9467 151.188 31.84C151.214 31.76 151.241 31.5467 151.268 31.2C151.321 30.8267 151.401 30.5067 151.508 30.24C151.614 29.76 151.774 29.1467 151.988 28.4C152.201 27.6267 152.414 26.88 152.628 26.16C152.868 25.4133 153.054 24.84 153.188 24.44C153.241 24.1467 153.361 23.7733 153.548 23.32C153.734 22.8667 153.894 22.5067 154.028 22.24C154.294 21.4933 154.641 20.6 155.068 19.56C155.521 18.52 155.974 17.48 156.428 16.44C156.881 15.4 157.281 14.52 157.628 13.8C158.001 13.0533 158.241 12.6 158.348 12.44C158.561 12.2267 158.814 12.1333 159.108 12.16C159.428 12.1867 159.734 12.3467 160.028 12.64C160.268 12.9333 160.374 13.2533 160.348 13.6C160.321 13.92 160.148 14.2667 159.828 14.64C159.721 14.8267 159.601 15.0667 159.468 15.36C159.334 15.6267 159.201 15.8533 159.068 16.04C158.854 16.68 158.588 17.3067 158.268 17.92C157.974 18.5333 157.654 19.2267 157.308 20C156.961 20.7467 156.588 21.68 156.188 22.8C155.948 23.3067 155.748 23.8133 155.588 24.32C155.428 24.8 155.294 25.1067 155.188 25.24C155.028 25.8267 154.828 26.44 154.588 27.08C154.348 27.6933 154.174 28.32 154.068 28.96C154.068 28.96 154.201 28.8267 154.468 28.56C154.761 28.2933 155.108 27.96 155.508 27.56C156.548 26.44 157.588 25.52 158.628 24.8C159.694 24.08 160.574 23.7067 161.268 23.68C161.641 23.6533 162.041 23.7467 162.468 23.96C162.921 24.1733 163.334 24.44 163.708 24.76C164.081 25.0533 164.334 25.3733 164.468 25.72C164.681 26.2 164.761 26.72 164.708 27.28C164.681 27.8133 164.521 28.3867 164.228 29C163.961 29.5867 163.588 30.1867 163.108 30.8C162.814 31.3067 162.454 31.8 162.028 32.28C161.628 32.7333 161.281 33.0667 160.988 33.28C160.721 33.52 160.454 33.76 160.188 34C159.948 34.2133 159.748 34.3867 159.588 34.52C159.241 34.76 158.961 34.9467 158.748 35.08C158.534 35.1867 158.241 35.3067 157.868 35.44C157.308 35.84 156.534 36.1333 155.548 36.32C154.561 36.5067 153.588 36.6667 152.628 36.8ZM153.668 34.76C153.854 34.76 154.188 34.72 154.668 34.64C155.174 34.56 155.641 34.36 156.068 34.04C157.321 33.4 158.401 32.6133 159.308 31.68C160.214 30.72 160.894 29.7733 161.348 28.84C161.828 27.88 162.041 27.0933 161.988 26.48C161.934 25.8667 161.468 25.7333 160.588 26.08C159.708 26.4267 158.641 27.2267 157.388 28.48C156.801 29.0133 156.241 29.5867 155.708 30.2C155.201 30.7867 154.721 31.3467 154.268 31.88C154.081 32.1733 153.921 32.4267 153.788 32.64C153.681 32.8533 153.614 33.0667 153.588 33.28C153.374 34.2667 153.401 34.76 153.668 34.76Z" fill="white"/>
<defs>
<linearGradient id="paint0_linear_1029_352" x1="31.4781" y1="6.75457" x2="31.2926" y2="47.5002" gradientUnits="userSpaceOnUse">
<stop stop-color="white"/>
<stop offset="0.533656" stop-color="white"/>
<stop offset="0.915064" stop-color="white"/>
</linearGradient>
<clipPath id="clip0_1029_352">
<rect width="32" height="45" fill="white" transform="matrix(-1 0 0 1 47 2.5)"/>
</clipPath>
</defs>
</svg>
